:SAMPLES-PER-SECOND 30
:FULLY-SPECIFIED
:DEGREES
1
root  -120.041 37.5257 -1.27072 55.1358 87.392 56.7919
RightUpLeg  10.0372 -3.6289 -3.42674
RightLeg  41.0874 10.849 0.764373
RightFoot  30.7652 -1.80313 4.44697
RightToes  1.74622e-010 -3.18055e-015 8.94531e-016
Spine  -2.16731 4.21922 6.00732
Spine1  14.5503 7.35577 -11.1156
HEad  -15.9967 -6.44705 7.58156
LeftShoulder1  0 -2.69403e-036 -1.28585e-037
LeftArm  -85.6776 46.2102 -74.4042
LeftForeArm  40.9563 6.21708 28.8662
LeftHand  -0.0502856 1.25428 3.99141
RightShoulder  -2.48481e-017 0 -8.08114e-019
RightArm  11.9704 -5.30307 82.0121
RightForeArm  -36.7432 27.4578 -25.3815
RightHand  1.84422 -13.0403 -9.48252
LeftUpLeg  -28.524 -7.40015 -4.49751
LeftLeg  25.5329 1.56438 5.76478
LeftFoot  3.2802 -0.354244 2.48257
LeftToes  -8.00353e-011 5.68142e-011 4.78552e-012
2
root  -118.345 37.7092 -1.41572 59.1396 85.0841 58.994
RightUpLeg  0.380838 -2.92627 -5.14029
RightLeg  50.5029 5.51245 -6.38933
RightFoot  34.3219 -2.26815 5.13117
RightToes  1.74622e-010 -3.18055e-015 8.94531e-016
Spine  -3.23971 3.39355 2.86311
Spine1  13.7705 6.21777 -10.4332
HEad  -14.0352 -5.91357 5.29549
LeftShoulder1  0 -2.69403e-036 -1.28585e-037
LeftArm  -50.0757 43.9605 -71.8285
LeftForeArm  24.3703 3.1552 12.151
LeftHand  0.934656 6.15499 -8.2169
RightShoulder  -2.48481e-017 0 -8.08114e-019
RightArm  20.2137 -8.17345 86.3239
RightForeArm  -39.9481 22.9755 -22.2575
RightHand  1.47386 -11.6784 -7.00296
LeftUpLeg  -27.6656 -6.19851 -7.14201
LeftLeg  26.3624 1.121 5.80129
LeftFoot  0.304736 -0.333515 2.7819
LeftToes  -8.00353e-011 5.68142e-011 4.78552e-012
3
root  -116.541 38.118 -1.47151 60.4749 85.7096 60.8088
RightUpLeg  -5.04569 -2.1393 -4.00966
RightLeg  56.2483 5.48298 -8.22158
RightFoot  28.6743 -2.28997 5.96634
RightToes  1.74622e-010 -3.18055e-015 8.94531e-016
Spine  -1.80605 2.36429 2.18115
Spine1  11.8284 4.63885 -9.88607
HEad  -10.8411 -4.75713 4.33177
LeftShoulder1  0 -2.69403e-036 -1.28585e-037
LeftArm  -20.8587 44.9371 -73.9145
LeftForeArm  0.090436 -1.39054 -4.6399
LeftHand  1.00516 7.26858 -7.26045
RightShoulder  -2.48481e-017 0 -8.08114e-019
RightArm  25.1303 -14.076 89.1943
RightForeArm  -42.5644 20.5823 -18.263
RightHand  1.36754 -11.4581 -5.43859
LeftUpLeg  -23.7089 -5.49966 -7.07158
LeftLeg  26.0533 0.242415 5.24596
LeftFoot  -2.54335 -0.2345 2.38698
LeftToes  -8.00353e-011 5.68142e-011 4.78552e-012
4
root  -114.656 38.5743 -1.5424 67.6733 86.6783 68.0211
RightUpLeg  -10.412 -1.28298 -2.86862
RightLeg  58.9397 7.68382 -5.16153
RightFoot  22.0341 -1.65229 5.18823
RightToes  1.74622e-010 -3.18055e-015 8.94531e-016
Spine  -2.35162 1.43963 1.82072
Spine1  11.8024 3.29757 -9.21954
HEad  -9.21188 -3.09033 4.61782
LeftShoulder1  0 -2.69403e-036 -1.28585e-037
LeftArm  -16.5563 39.972 -78.1051
LeftForeArm  -7.63824 -9.17959 -3.02891
LeftHand  1.03663 7.74091 -8.41278
RightShoulder  -2.48481e-017 0 -8.08114e-019
RightArm  19.8618 -20.2358 90.4971
RightForeArm  -36.9461 19.7616 -10.7939
RightHand  1.48858 -12.4024 -5.07805
LeftUpLeg  -19.7012 -6.22405 -6.61098
LeftLeg  24.7428 0.597778 5.04662
LeftFoot  -4.83832 -0.142572 1.7114
LeftToes  -8.00353e-011 5.68142e-011 4.78552e-012
5
root  -112.776 38.9742 -1.59742 95.4707 87.7518 95.6261
RightUpLeg  -15.7335 -0.98503 -1.50513
RightLeg  58.3048 8.77878 -3.00895
RightFoot  18.9748 -1.46874 5.07987
RightToes  1.74622e-010 -3.18055e-015 8.94531e-016
Spine  -3.77321 0.0180034 0.498865
Spine1  12.5315 1.16516 -6.9374
HEad  -8.35738 -1.75805 4.42278
LeftShoulder1  0 -2.69403e-036 -1.28585e-037
LeftArm  -13.1829 32.2633 -81.4925
LeftForeArm  -14.2168 -12.143 -2.15747
LeftHand  1.02863 7.55861 -5.16695
RightShoulder  -2.48481e-017 0 -8.08114e-019
RightArm  11.1165 -25.7862 91.1118
RightForeArm  -26.8124 17.0203 -2.50743
RightHand  1.53413 -12.8452 -4.74893
LeftUpLeg  -15.7694 -7.5467 -6.13771
LeftLeg  22.8555 0.774027 4.90342
LeftFoot  -6.46328 -0.0968435 1.2799
LeftToes  -8.00353e-011 5.68142e-011 4.78552e-012
6
root  -110.892 39.2976 -1.61164 152.741 87.6557 152.792
RightUpLeg  -20.3436 -1.12155 0.200158
RightLeg  54.8916 8.47321 -2.99772
RightFoot  16.6769 -1.77474 6.64114
RightToes  1.74622e-010 -3.18055e-015 8.94531e-016
Spine  -4.6111 -1.61935 -1.29687
Spine1  12.506 -1.43701 -3.51935
HEad  -7.46355 -0.809869 3.66721
LeftShoulder1  0 -2.69403e-036 -1.28585e-037
LeftArm  3.23991 26.2679 -84.0316
LeftForeArm  -30.6123 -19.7173 4.12632
LeftHand  0.943518 6.81637 -2.07565
RightShoulder  -2.48481e-017 0 -8.08114e-019
RightArm  3.87802 -32.0836 90.9032
RightForeArm  -18.1204 13.3491 2.68873
RightHand  1.39618 -12.2918 -3.62157
LeftUpLeg  -11.6339 -6.85082 -5.54052
LeftLeg  20.3802 -1.46161 4.41915
LeftFoot  -7.7239 -0.075144 1.05198
LeftToes  -8.00353e-011 5.68142e-011 4.78552e-012
7
root  -109.024 39.2735 -1.54969 171.314 85.9855 171.466
RightUpLeg  -23.6949 -1.61816 1.07331
RightLeg  50.3133 7.89963 -3.14989
RightFoot  8.95986 -1.14631 5.85336
RightToes  1.74622e-010 -3.18055e-015 8.94531e-016
Spine  -4.39051 -3.03186 -4.55443
Spine1  11.844 -3.87715 -0.117326
HEad  -7.10117 0.121743 3.05264
LeftShoulder1  0 -2.69403e-036 -1.28585e-037
LeftArm  22.8947 21.4999 -84.9235
LeftForeArm  -50.9907 -26.1755 16.8097
LeftHand  0.987776 7.20461 -1.12353
RightShoulder  -2.48481e-017 0 -8.08114e-019
RightArm  -0.441715 -39.6086 89.3795
RightForeArm  -13.7188 11.8139 3.93795
RightHand  1.29763 -11.897 -2.66942
LeftUpLeg  -8.5346 -4.25789 -5.16203
LeftLeg  20.2634 -5.48842 3.96132
LeftFoot  -10.3579 -0.0526248 0.823576
LeftToes  -8.00353e-011 5.68142e-011 4.78552e-012
8
root  -107.151 39.2886 -1.49941 179.449 84.1444 179.931
RightUpLeg  -25.4119 -2.52779 1.55673
RightLeg  42.1847 7.81372 -2.23748
RightFoot  5.00711 -0.729786 4.56035
RightToes  1.74622e-010 -3.18055e-015 8.94531e-016
Spine  -3.53213 -4.27857 -7.09562
Spine1  10.9791 -5.95914 3.51414
HEad  -7.71276 0.749543 2.7478
LeftShoulder1  0 -2.69403e-036 -1.28585e-037
LeftArm  21.4565 15.3133 -83.6629
LeftForeArm  -47.8556 -31.0963 19.0255
LeftHand  1.04142 7.61226 -0.114014
RightShoulder  -2.48481e-017 0 -8.08114e-019
RightArm  1.43761 -47.3805 86.8759
RightForeArm  -16.6444 12.6572 3.23001
RightHand  1.41527 -12.6408 -3.13295
LeftUpLeg  -4.75609 -2.12885 -4.00544
LeftLeg  19.275 -8.89772 3.17102
LeftFoot  -12.5429 -0.0471804 1.33709
LeftToes  -8.00353e-011 5.68142e-011 4.78552e-012
